<svg width="176" height="112" viewBox="0 0 176 112" fill="none" xmlns="http://www.w3.org/2000/svg" >
<path d="M176 0.266663H0V111.733H176V0.266663ZM88 107.737L16.8667 56.0367L88 4.33666L159.133 56.0367L88 107.737Z" fill="#AAAAAA"/>
<path d="M64.0934 32.02C85.1767 38.2533 104.573 50.0967 119.717 66.047C120.707 62.8933 121.22 59.52 121.22 56.0367C121.22 37.4833 106.187 22.4133 87.5967 22.4133C78.4667 22.4133 70.1434 26.08 64.0934 32.02Z" fill="#AAAAAA"/>
<path d="M58.8133 38.6934C55.77 43.7534 54.01 49.6934 54.01 56.0367C54.01 74.59 69.0433 89.66 87.6333 89.66C99.6967 89.66 110.257 83.3167 116.197 73.7471C100.87 56.8063 80.8867 44.56 58.8133 38.6934Z" fill="#AAAAAA"/>
</svg>
