<svg width="176" height="112" viewBox="0 0 176 112" fill="none" xmlns="http://www.w3.org/2000/svg">
<path d="M0 107.747V103.494H106L175.679 103.494V107.747V112L106 112H0V107.747ZM0 90.3797V86.1266H106L175.679 86.1266V90.3798V94.6329L106 94.6329H0V90.3797ZM0 73.1899V69.1139H106L175.679 69.1139V73.1899V77.2658L106 77.2658H0V73.1899ZM0 30.1266V0H106L175.679 4.36246e-06V4.25317V8.50633L148.4 8.50633H84.8V12.9367V17.3671H148.4L175.679 17.3671V21.6203V25.8734L148.4 25.8734H84.8V30.3038V34.7342H148.4L175.679 34.7342V38.8101V42.8861L148.4 42.8861H84.8V47.3164V51.7468H148.4L175.679 51.7468V56V60.2532L106 60.2532H0V30.1266ZM6.44833 56.0673C6.99847 55.5934 7.13486 55.5934 7.685 56.0673C8.97831 57.1815 9.18366 57.1594 8.76376 55.9512C8.39933 54.9025 8.44767 54.7528 9.39626 53.9914L10.4233 53.167L9.0895 53.1653C7.89068 53.1638 7.73422 53.0559 7.54367 52.1002C7.42707 51.5154 7.21242 51.0369 7.06667 51.0369C6.92092 51.0369 6.70627 51.5154 6.58967 52.1002C6.39912 53.0559 6.24266 53.1637 5.04383 53.1653L3.71 53.1671L4.73707 53.9914C5.68566 54.7528 5.734 54.9026 5.36957 55.9512C4.94971 57.1594 5.15503 57.1814 6.44833 56.0673ZM20.5817 56.0673C21.1318 55.5934 21.2682 55.5934 21.8183 56.0673C23.1116 57.1815 23.317 57.1594 22.8971 55.9512C22.5327 54.9025 22.581 54.7528 23.5296 53.9914L24.5567 53.167L23.2228 53.1653C22.024 53.1638 21.8676 53.0559 21.677 52.1002C21.5604 51.5154 21.3457 51.0369 21.2 51.0369C21.0542 51.0369 20.8396 51.5154 20.723 52.1002C20.5325 53.0559 20.376 53.1637 19.1772 53.1653L17.8433 53.1671L18.8704 53.9914C19.819 54.7528 19.8673 54.9026 19.5029 55.9512C19.083 57.1594 19.2884 57.1814 20.5817 56.0673ZM34.715 56.0673C35.2651 55.5934 35.4015 55.5934 35.9517 56.0673C37.245 57.1815 37.4503 57.1594 37.0304 55.9512C36.666 54.9025 36.7143 54.7528 37.6629 53.9914L38.69 53.167L37.3562 53.1653C36.1573 53.1638 36.0009 53.0559 35.8103 52.1002C35.6937 51.5154 35.4791 51.0369 35.3333 51.0369C35.1876 51.0369 34.9729 51.5154 34.8563 52.1002C34.6658 53.0559 34.5093 53.1637 33.3105 53.1653L31.9767 53.167L33.0037 53.9914C33.9523 54.7528 34.0007 54.9025 33.6362 55.9512C33.2164 57.1594 33.4217 57.1814 34.715 56.0673ZM48.8483 56.0673C49.3985 55.5934 49.5349 55.5934 50.085 56.0673C51.3783 57.1815 51.5837 57.1594 51.1638 55.9512C50.7993 54.9025 50.8477 54.7528 51.7963 53.9914L52.8233 53.167L51.4895 53.1653C50.2907 53.1638 50.1342 53.0559 49.9437 52.1002C49.8271 51.5154 49.6124 51.0369 49.4667 51.0369C49.3209 51.0369 49.1063 51.5154 48.9897 52.1002C48.7991 53.0559 48.6427 53.1637 47.4438 53.1653L46.11 53.167L47.1371 53.9914C48.0857 54.7528 48.134 54.9025 47.7696 55.9512C47.3497 57.1594 47.555 57.1814 48.8483 56.0673ZM62.9817 56.0673C63.5318 55.5934 63.6682 55.5934 64.2183 56.0673C65.5116 57.1815 65.717 57.1594 65.2971 55.9512C64.9327 54.9025 64.981 54.7528 65.9296 53.9914L66.9567 53.167L65.6228 53.1653C64.424 53.1638 64.2676 53.0559 64.077 52.1002C63.9604 51.5154 63.7458 51.0369 63.6 51.0369C63.4543 51.0369 63.2396 51.5154 63.123 52.1002C62.9325 53.0559 62.776 53.1637 61.5772 53.1653L60.2433 53.167L61.2704 53.9914C62.219 54.7528 62.2673 54.9025 61.9029 55.9512C61.483 57.1594 61.6884 57.1814 62.9817 56.0673ZM77.115 56.0673C77.6651 55.5934 77.8015 55.5934 78.3517 56.0673C79.645 57.1815 79.8503 57.1594 79.4304 55.9512C79.066 54.9025 79.1143 54.7528 80.0629 53.9914L81.09 53.167L79.7562 53.1653C78.5573 53.1638 78.4009 53.0559 78.2103 52.1002C78.0937 51.5154 77.8791 51.0369 77.7333 51.0369C77.5876 51.0369 77.3729 51.5154 77.2563 52.1002C77.0658 53.0559 76.9093 53.1637 75.7105 53.1653L74.3767 53.167L75.4037 53.9914C76.3523 54.7528 76.4006 54.9025 76.0362 55.9512C75.6164 57.1594 75.8217 57.1814 77.115 56.0673ZM13.515 50.042C14.0651 49.5681 14.2015 49.5681 14.7517 50.042C16.045 51.1562 16.2503 51.134 15.8304 49.9258C15.466 48.8772 15.5143 48.7275 16.4629 47.9661L17.49 47.1417L16.1931 47.1399C15.0399 47.1385 14.8704 47.0203 14.6633 46.0749C14.5353 45.4901 14.2968 45.0116 14.1333 45.0116C13.9699 45.0116 13.7314 45.4901 13.6033 46.0749C13.3963 47.0204 13.2268 47.1384 12.0736 47.14L10.7767 47.1418L11.8037 47.9661C12.7523 48.7275 12.8007 48.8773 12.4362 49.9259C12.0164 51.1341 12.2217 51.1561 13.515 50.042ZM27.6483 50.042C28.1985 49.5681 28.3349 49.5681 28.885 50.042C30.1783 51.1562 30.3837 51.134 29.9638 49.9258C29.5993 48.8772 29.6477 48.7275 30.5963 47.9661L31.6233 47.1417L30.3264 47.1399C29.1732 47.1385 29.0037 47.0203 28.7967 46.0749C28.6686 45.4901 28.4301 45.0116 28.2667 45.0116C28.1032 45.0116 27.8647 45.4901 27.7367 46.0749C27.5297 47.0204 27.3601 47.1384 26.2069 47.14L24.91 47.1418L25.9371 47.9661C26.8857 48.7275 26.934 48.8773 26.5696 49.9259C26.1497 51.1341 26.355 51.1561 27.6483 50.042ZM41.7817 50.042C42.3318 49.5681 42.4682 49.5681 43.0183 50.042C44.3116 51.1562 44.517 51.134 44.0971 49.9258C43.7327 48.8772 43.781 48.7275 44.7296 47.9661L45.7567 47.1417L44.4598 47.1399C43.3066 47.1385 43.137 47.0203 42.93 46.0749C42.802 45.4901 42.5634 45.0116 42.4 45.0116C42.2365 45.0116 41.998 45.4901 41.87 46.0749C41.663 47.0203 41.4934 47.1384 40.3402 47.1399L39.0433 47.1417L40.0704 47.9661C41.019 48.7275 41.0673 48.8772 40.7029 49.9258C40.283 51.1341 40.4884 51.1561 41.7817 50.042ZM55.915 50.042C56.4651 49.5681 56.6015 49.5681 57.1517 50.042C58.445 51.1562 58.6503 51.134 58.2304 49.9258C57.866 48.8772 57.9143 48.7275 58.8629 47.9661L59.89 47.1417L58.5931 47.1399C57.4399 47.1385 57.2704 47.0203 57.0633 46.0749C56.9353 45.4901 56.6968 45.0116 56.5333 45.0116C56.3699 45.0116 56.1314 45.4901 56.0033 46.0749C55.7963 47.0203 55.6268 47.1384 54.4736 47.1399L53.1767 47.1417L54.2037 47.9661C55.1523 48.7275 55.2006 48.8772 54.8362 49.9258C54.4164 51.1341 54.6217 51.1561 55.915 50.042ZM70.0483 50.042C70.5985 49.5681 70.7349 49.5681 71.285 50.042C72.5783 51.1562 72.7837 51.134 72.3638 49.9258C71.9993 48.8772 72.0477 48.7275 72.9963 47.9661L74.0233 47.1417L72.7264 47.1399C71.5733 47.1385 71.4037 47.0203 71.1967 46.0749C71.0686 45.4901 70.8301 45.0116 70.6667 45.0116C70.5032 45.0116 70.2647 45.4901 70.1367 46.0749C69.9297 47.0203 69.7601 47.1384 68.6069 47.1399L67.31 47.1417L68.3371 47.9661C69.2857 48.7275 69.334 48.8772 68.9696 49.9258C68.5497 51.1341 68.755 51.1561 70.0483 50.042ZM6.44833 44.0167C6.99847 43.5428 7.13486 43.5428 7.685 44.0167C8.97831 45.1308 9.18366 45.1087 8.76376 43.9005C8.39933 42.8519 8.44767 42.7022 9.39626 41.9408L10.4233 41.1164L9.12642 41.1146C7.97325 41.1132 7.80368 40.995 7.59667 40.0496C7.46862 39.4648 7.23012 38.9863 7.06667 38.9863C6.90321 38.9863 6.66471 39.4648 6.53667 40.0496C6.32966 40.995 6.16008 41.1131 5.00695 41.1147L3.71 41.1164L4.73707 41.9408C5.68566 42.7022 5.734 42.8519 5.36957 43.9006C4.94971 45.1088 5.15503 45.1308 6.44833 44.0167ZM20.5817 44.0167C21.1318 43.5428 21.2682 43.5428 21.8183 44.0167C23.0975 45.1187 23.2941 45.0923 22.9377 43.8666C22.6356 42.8275 22.7018 42.6256 23.5787 41.9121L24.5567 41.1164L23.2598 41.1147C22.1066 41.1132 21.937 40.9951 21.73 40.0496C21.602 39.4648 21.3635 38.9863 21.2 38.9863C21.0365 38.9863 20.798 39.4648 20.67 40.0496C20.463 40.9951 20.2934 41.1131 19.1403 41.1147L17.8433 41.1165L18.8704 41.9408C19.819 42.7022 19.8673 42.852 19.5029 43.9006C19.083 45.1088 19.2884 45.1308 20.5817 44.0167ZM34.715 44.0167C35.2651 43.5428 35.4015 43.5428 35.9517 44.0167C37.245 45.1308 37.4503 45.1087 37.0304 43.9005C36.666 42.8519 36.7143 42.7022 37.6629 41.9408L38.69 41.1164L37.3931 41.1146C36.2399 41.1132 36.0704 40.995 35.8633 40.0496C35.7353 39.4648 35.4968 38.9863 35.3333 38.9863C35.1699 38.9863 34.9314 39.4648 34.8033 40.0496C34.5963 40.995 34.4268 41.1131 33.2736 41.1146L31.9767 41.1164L32.9546 41.9121C33.8315 42.6256 33.8977 42.8275 33.5956 43.8665C33.2393 45.0923 33.4358 45.1187 34.715 44.0167ZM48.8483 44.0167C49.3985 43.5428 49.5349 43.5428 50.085 44.0167C51.3642 45.1187 51.5607 45.0923 51.2044 43.8666C50.9023 42.8275 50.9685 42.6256 51.8454 41.9121L52.8233 41.1164L51.5264 41.1147C50.3732 41.1132 50.2037 40.995 49.9967 40.0496C49.8686 39.4648 49.6301 38.9863 49.4667 38.9863C49.3032 38.9863 49.0647 39.4648 48.9367 40.0496C48.7297 40.995 48.5601 41.1131 47.4069 41.1147L46.11 41.1164L47.1371 41.9408C48.0857 42.7022 48.134 42.8519 47.7696 43.9005C47.3497 45.1088 47.555 45.1308 48.8483 44.0167ZM62.9817 44.0167C63.5318 43.5428 63.6682 43.5428 64.2183 44.0167C65.5116 45.1308 65.717 45.1087 65.2971 43.9005C64.9327 42.8519 64.981 42.7022 65.9296 41.9408L66.9567 41.1164L65.6598 41.1146C64.5066 41.1132 64.337 40.995 64.13 40.0496C64.0019 39.4648 63.7635 38.9863 63.6 38.9863C63.4366 38.9863 63.198 39.4648 63.07 40.0496C62.863 40.995 62.6934 41.1131 61.5402 41.1146L60.2433 41.1164L61.2213 41.9121C62.0982 42.6256 62.1644 42.8275 61.8623 43.8665C61.5059 45.0923 61.7025 45.1187 62.9817 44.0167ZM77.115 44.0167C77.6651 43.5428 77.8015 43.5428 78.3517 44.0167C79.645 45.1308 79.8503 45.1087 79.4304 43.9005C79.066 42.8519 79.1143 42.7022 80.0629 41.9408L81.09 41.1164L79.7931 41.1146C78.6399 41.1132 78.4703 40.995 78.2633 40.0496C78.1353 39.4648 77.8968 38.9863 77.7333 38.9863C77.5699 38.9863 77.3314 39.4648 77.2033 40.0496C76.9963 40.995 76.8268 41.1131 75.6736 41.1146L74.3767 41.1164L75.4037 41.9408C76.3523 42.7022 76.4006 42.8519 76.0362 43.9005C75.6164 45.1087 75.8217 45.1308 77.115 44.0167ZM13.515 37.9914C14.0651 37.5174 14.2015 37.5174 14.7517 37.9914C16.045 39.1055 16.2503 39.0834 15.8304 37.8752C15.466 36.8266 15.5143 36.6768 16.4629 35.9155L17.49 35.0911L16.1931 35.0893C15.0399 35.0879 14.8704 34.9697 14.6633 34.0243C14.5353 33.4395 14.2968 32.961 14.1333 32.961C13.9699 32.961 13.7314 33.4395 13.6033 34.0243C13.3963 34.9697 13.2268 35.0878 12.0736 35.0893L10.7767 35.0911L11.8037 35.9155C12.7523 36.6769 12.8007 36.8266 12.4362 37.8752C12.0164 39.0835 12.2217 39.1055 13.515 37.9914ZM41.7817 37.9914C42.3318 37.5174 42.4682 37.5174 43.0183 37.9914C44.3116 39.1055 44.517 39.0834 44.0971 37.8752C43.7327 36.8266 43.781 36.6768 44.7296 35.9155L45.7567 35.0911L44.4598 35.0893C43.3066 35.0879 43.137 34.9697 42.93 34.0243C42.802 33.4395 42.5634 32.961 42.4 32.961C42.2365 32.961 41.998 33.4395 41.87 34.0243C41.663 34.9697 41.4934 35.0878 40.3402 35.0893L39.0433 35.0911L40.0704 35.9155C41.019 36.6769 41.0673 36.8266 40.7029 37.8752C40.283 39.0835 40.4884 39.1055 41.7817 37.9914ZM70.0483 37.9914C70.5985 37.5174 70.7349 37.5174 71.285 37.9914C72.5783 39.1055 72.7837 39.0834 72.3638 37.8752C71.9993 36.8266 72.0477 36.6768 72.9963 35.9155L74.0233 35.0911L72.7264 35.0893C71.5733 35.0879 71.4037 34.9697 71.1967 34.0243C71.0686 33.4395 70.8301 32.961 70.6667 32.961C70.5032 32.961 70.2647 33.4395 70.1367 34.0243C69.9297 34.9697 69.7601 35.0878 68.6069 35.0893L67.31 35.0911L68.3371 35.9155C69.2857 36.6769 69.334 36.8266 68.9696 37.8752C68.5497 39.0835 68.755 39.1055 70.0483 37.9914ZM27.6201 38.0453C28.2213 37.4995 28.3111 37.4995 28.9124 38.0453C29.8473 38.894 30.1193 38.7703 29.8657 37.6118C29.6811 36.7687 29.8142 36.463 30.6326 35.8508L31.6229 35.11L30.326 35.0988C29.1758 35.0888 29.0027 34.9672 28.7962 34.0243C28.6682 33.4395 28.4297 32.961 28.2662 32.961C28.1028 32.961 27.8643 33.4395 27.7362 34.0243C27.5298 34.9672 27.3567 35.0888 26.2065 35.0988L24.9096 35.11L25.8999 35.8508C26.7182 36.463 26.8514 36.7687 26.6668 37.6118C26.4131 38.7703 26.6852 38.894 27.6201 38.0453ZM55.8867 38.0453C56.488 37.4995 56.5778 37.4995 57.1791 38.0453C58.114 38.894 58.386 38.7703 58.1323 37.6118C57.9478 36.7687 58.0809 36.463 58.8993 35.8508L59.8896 35.11L58.5927 35.0988C57.4425 35.0888 57.2694 34.9672 57.0629 34.0243C56.9349 33.4395 56.6964 32.961 56.5329 32.961C56.3695 32.961 56.131 33.4395 56.0029 34.0243C55.7964 34.9672 55.6233 35.0888 54.4732 35.0988L53.1762 35.11L54.1665 35.8508C54.9849 36.463 55.1181 36.7687 54.9335 37.6118C54.6798 38.7703 54.9518 38.894 55.8867 38.0453ZM6.42007 32.0203C7.02133 31.4745 7.11112 31.4745 7.71238 32.0203C8.64773 32.8694 8.91933 32.7452 8.66518 31.5844C8.48243 30.7498 8.61583 30.4243 9.39142 29.8123L10.3415 29.0626H9.0853C7.97675 29.0626 7.80167 28.9376 7.59624 27.9993C7.46819 27.4145 7.22969 26.936 7.06624 26.936C6.90279 26.936 6.66429 27.4145 6.53624 27.9993C6.3308 28.9376 6.1557 29.0626 5.04719 29.0626H3.79095L4.74106 29.8123C5.51666 30.4243 5.65005 30.7498 5.4673 31.5844C5.21315 32.7452 5.48469 32.8695 6.42007 32.0203ZM20.5534 32.0203C21.1547 31.4745 21.2444 31.4745 21.8457 32.0203C22.7811 32.8694 23.0527 32.7452 22.7985 31.5844C22.6158 30.7498 22.7492 30.4243 23.5248 29.8123L24.4749 29.0626H23.2186C22.1101 29.0626 21.935 28.9376 21.7296 27.9993C21.6015 27.4145 21.363 26.936 21.1996 26.936C21.0361 26.936 20.7976 27.4145 20.6696 27.9993C20.4641 28.9376 20.289 29.0626 19.1805 29.0626H17.9243L18.8744 29.8123C19.65 30.4243 19.7834 30.7498 19.6006 31.5844C19.3465 32.7452 19.618 32.8695 20.5534 32.0203ZM34.6867 32.0203C35.288 31.4745 35.3778 31.4745 35.979 32.0203C36.9144 32.8694 37.186 32.7452 36.9319 31.5844C36.7491 30.7498 36.8825 30.4243 37.6581 29.8123L38.6082 29.0626H37.352C36.2434 29.0626 36.0683 28.9376 35.8629 27.9993C35.7349 27.4145 35.4964 26.936 35.3329 26.936C35.1695 26.936 34.931 27.4145 34.8029 27.9993C34.5975 28.9376 34.4224 29.0626 33.3139 29.0626H32.0576L33.0077 29.8123C33.7833 30.4243 33.9167 30.7498 33.734 31.5844C33.4798 32.7452 33.7514 32.8695 34.6867 32.0203ZM48.8201 32.0203C49.4213 31.4745 49.5111 31.4745 50.1124 32.0203C51.0477 32.8694 51.3193 32.7452 51.0652 31.5844C50.8824 30.7498 51.0158 30.4243 51.7914 29.8123L52.7415 29.0626H51.4853C50.3767 29.0626 50.2017 28.9376 49.9962 27.9993C49.8682 27.4145 49.6297 26.936 49.4662 26.936C49.3028 26.936 49.0643 27.4145 48.9362 27.9993C48.7308 28.9376 48.5557 29.0626 47.4472 29.0626H46.191L47.1411 29.8123C47.9167 30.4243 48.05 30.7498 47.8673 31.5844C47.6131 32.7452 47.8847 32.8695 48.8201 32.0203ZM62.9534 32.0203C63.5547 31.4745 63.6444 31.4745 64.2457 32.0203C65.1811 32.8694 65.4527 32.7452 65.1985 31.5844C65.0158 30.7498 65.1492 30.4243 65.9248 29.8123L66.8749 29.0626H65.6186C64.5101 29.0626 64.335 28.9376 64.1296 27.9993C64.0015 27.4145 63.763 26.936 63.5996 26.936C63.4361 26.936 63.1976 27.4145 63.0696 27.9993C62.8641 28.9376 62.689 29.0626 61.5805 29.0626H60.3243L61.2744 29.8123C62.05 30.4243 62.1834 30.7498 62.0006 31.5844C61.7465 32.7452 62.018 32.8695 62.9534 32.0203ZM77.0867 32.0203C77.688 31.4745 77.7778 31.4745 78.3791 32.0203C79.3144 32.8694 79.586 32.7452 79.3319 31.5844C79.1491 30.7498 79.2825 30.4243 80.0581 29.8123L81.0082 29.0626H79.752C78.6434 29.0626 78.4683 28.9376 78.2629 27.9993C78.1349 27.4145 77.8964 26.936 77.7329 26.936C77.5695 26.936 77.331 27.4145 77.2029 27.9993C76.9975 28.9376 76.8224 29.0626 75.7139 29.0626H74.4576L75.4077 29.8123C76.1833 30.4243 76.3167 30.7498 76.134 31.5844C75.8798 32.7452 76.1514 32.8695 77.0867 32.0203ZM13.515 25.9411C14.0651 25.4672 14.2015 25.4672 14.7517 25.9411C16.0448 27.0551 16.2503 27.0331 15.8307 25.8256C15.471 24.7906 15.5205 24.6182 16.3945 23.8641L17.3527 23.0373H16.1244C15.0469 23.0373 14.8676 22.9068 14.6633 21.974C14.3656 20.6141 13.9011 20.6141 13.6033 21.974C13.3991 22.9068 13.2197 23.0373 12.1422 23.0373H10.9139L11.8721 23.8641C12.7462 24.6183 12.7957 24.7906 12.436 25.8256C12.0163 27.0331 12.2218 27.0551 13.515 25.9411ZM27.6483 25.9411C28.1985 25.4672 28.3349 25.4672 28.885 25.9411C30.1782 27.0551 30.3836 27.0331 29.964 25.8256C29.6043 24.7906 29.6538 24.6182 30.5279 23.8641L31.4861 23.0373H30.2578C29.1803 23.0373 29.0009 22.9068 28.7967 21.974C28.4989 20.6141 28.0344 20.6141 27.7367 21.974C27.5324 22.9068 27.3531 23.0373 26.2756 23.0373H25.0473L26.0055 23.8641C26.8795 24.6183 26.9291 24.7906 26.5693 25.8256C26.1497 27.0331 26.3552 27.0551 27.6483 25.9411ZM41.7817 25.9411C42.3318 25.4672 42.4682 25.4672 43.0183 25.9411C44.3115 27.0551 44.517 27.0331 44.0973 25.8256C43.7376 24.7906 43.7872 24.6182 44.6612 23.8641L45.6194 23.0373H44.3911C43.3136 23.0373 43.1342 22.9068 42.93 21.974C42.6322 20.6141 42.1678 20.6141 41.87 21.974C41.6658 22.9068 41.4863 23.0373 40.4089 23.0373H39.1806L40.1388 23.8641C41.0128 24.6183 41.0624 24.7906 40.7027 25.8256C40.283 27.0331 40.4885 27.0551 41.7817 25.9411ZM55.915 25.9411C56.4651 25.4672 56.6015 25.4672 57.1517 25.9411C58.4448 27.0551 58.6503 27.0331 58.2307 25.8256C57.871 24.7906 57.9205 24.6182 58.7945 23.8641L59.7527 23.0373H58.5244C57.447 23.0373 57.2676 22.9068 57.0633 21.974C56.7656 20.6141 56.3011 20.6141 56.0033 21.974C55.7991 22.9068 55.6197 23.0373 54.5422 23.0373H53.3139L54.2721 23.8641C55.1462 24.6183 55.1957 24.7906 54.836 25.8256C54.4163 27.0331 54.6218 27.0551 55.915 25.9411ZM70.0483 25.9411C70.5985 25.4672 70.7349 25.4672 71.285 25.9411C72.5782 27.0551 72.7836 27.0331 72.364 25.8256C72.0043 24.7906 72.0538 24.6182 72.9279 23.8641L73.8861 23.0373H72.6578C71.5803 23.0373 71.4009 22.9068 71.1967 21.974C70.8989 20.6141 70.4344 20.6141 70.1367 21.974C69.9324 22.9068 69.753 23.0373 68.6756 23.0373H67.4473L68.4055 23.8641C69.2795 24.6183 69.3291 24.7906 68.9693 25.8256C68.5497 27.0331 68.7552 27.0551 70.0483 25.9411ZM8.11253 20.1923L9.15925 20.9399L8.76404 19.8027C8.40329 18.7646 8.45238 18.5934 9.32705 17.8387L10.2853 17.0119H9.05696C7.97947 17.0119 7.80008 16.8813 7.59585 15.9486C7.29809 14.5887 6.83361 14.5887 6.53585 15.9486C6.33162 16.8813 6.15224 17.0119 5.07475 17.0119H3.84646L4.80466 17.8387C5.6793 18.5934 5.72842 18.7646 5.36766 19.8027L4.97246 20.9399L6.01918 20.1923L7.06589 19.4446L8.11253 20.1923ZM22.2459 20.1923L23.2926 20.9399L22.8974 19.8027C22.5366 18.7646 22.5857 18.5934 23.4604 17.8387L24.4186 17.0119H23.1903C22.1128 17.0119 21.9334 16.8813 21.7292 15.9486C21.4314 14.5887 20.9669 14.5887 20.6692 15.9486C20.465 16.8813 20.2856 17.0119 19.2081 17.0119H17.9798L18.938 17.8387C19.8126 18.5934 19.8618 18.7646 19.501 19.8027L19.1058 20.9399L20.1525 20.1923L21.1992 19.4446L22.2459 20.1923ZM36.3792 20.1923L37.4259 20.9399L37.0307 19.8027C36.67 18.7646 36.719 18.5934 37.5937 17.8387L38.5519 17.0119H37.3236C36.2461 17.0119 36.0667 16.8813 35.8625 15.9486C35.5648 14.5887 35.1003 14.5887 34.8025 15.9486C34.5983 16.8813 34.4189 17.0119 33.3414 17.0119H32.1131L33.0713 17.8387C33.946 18.5934 33.9951 18.7646 33.6343 19.8027L33.2391 20.9399L34.2858 20.1923L35.3326 19.4446L36.3792 20.1923ZM50.5125 20.1923L51.5592 20.9399L51.164 19.8027C50.8033 18.7646 50.8524 18.5934 51.7271 17.8387L52.6853 17.0119H51.457C50.3795 17.0119 50.2001 16.8813 49.9959 15.9486C49.6981 14.5887 49.2336 14.5887 48.9359 15.9486C48.7316 16.8813 48.5522 17.0119 47.4748 17.0119H46.2465L47.2047 17.8387C48.0793 18.5934 48.1284 18.7646 47.7677 19.8027L47.3725 20.9399L48.4192 20.1923L49.4659 19.4446L50.5125 20.1923ZM64.6459 20.1923L65.6926 20.9399L65.2974 19.8027C64.9366 18.7646 64.9857 18.5934 65.8604 17.8387L66.8186 17.0119H65.5903C64.5128 17.0119 64.3334 16.8813 64.1292 15.9486C63.8314 14.5887 63.3669 14.5887 63.0692 15.9486C62.865 16.8813 62.6855 17.0119 61.6081 17.0119H60.3798L61.338 17.8387C62.2126 18.5934 62.2618 18.7646 61.901 19.8027L61.5058 20.9399L62.5525 20.1923L63.5992 19.4446L64.6459 20.1923ZM78.7792 20.1923L79.8259 20.9399L79.4307 19.8027C79.07 18.7646 79.1191 18.5934 79.9937 17.8387L80.9519 17.0119H79.7236C78.6461 17.0119 78.4667 16.8813 78.2625 15.9486C77.9648 14.5887 77.5003 14.5887 77.2025 15.9486C76.9983 16.8813 76.8189 17.0119 75.7414 17.0119H74.5131L75.4713 17.8387C76.346 18.5934 76.3951 18.7646 76.0343 19.8027L75.6391 20.9399L76.6858 20.1923L77.7326 19.4446L78.7792 20.1923ZM13.4867 13.9444C14.088 13.3986 14.1778 13.3986 14.7791 13.9444C15.7144 14.7935 15.986 14.6693 15.7318 13.5085C15.5491 12.6739 15.6825 12.3483 16.4581 11.7364L17.4082 10.9867H16.115C14.9609 10.9867 14.7991 10.8724 14.6099 9.92338C14.4933 9.33857 14.2786 8.86009 14.1329 8.86009C13.9871 8.86009 13.7725 9.33857 13.6559 9.92338C13.4667 10.8724 13.3049 10.9867 12.1507 10.9867H10.8575L11.8077 11.7364C12.5833 12.3483 12.7166 12.6739 12.5339 13.5085C12.2797 14.6693 12.5514 14.7935 13.4867 13.9444ZM27.6201 13.9444C28.2213 13.3986 28.3111 13.3986 28.9124 13.9444C29.8477 14.7935 30.1193 14.6693 29.8652 13.5085C29.6824 12.6739 29.8158 12.3483 30.5914 11.7364L31.5415 10.9867H30.2484C29.0942 10.9867 28.9325 10.8724 28.7432 9.92338C28.6266 9.33857 28.412 8.86009 28.2662 8.86009C28.1205 8.86009 27.9058 9.33857 27.7892 9.92338C27.6 10.8724 27.4382 10.9867 26.284 10.9867H24.9909L25.941 11.7364C26.7166 12.3483 26.85 12.6739 26.6672 13.5085C26.4131 14.6693 26.6847 14.7935 27.6201 13.9444ZM41.7534 13.9444C42.3547 13.3986 42.4444 13.3986 43.0457 13.9444C43.9811 14.7935 44.2527 14.6693 43.9985 13.5085C43.8158 12.6739 43.9492 12.3483 44.7248 11.7364L45.6749 10.9867H44.3817C43.2275 10.9867 43.0658 10.8724 42.8765 9.92338C42.7599 9.33857 42.5453 8.86009 42.3995 8.86009C42.2538 8.86009 42.0391 9.33857 41.9225 9.92338C41.7333 10.8724 41.5716 10.9867 40.4174 10.9867H39.1242L40.0743 11.7364C40.8499 12.3483 40.9833 12.6739 40.8006 13.5085C40.5464 14.6693 40.818 14.7935 41.7534 13.9444ZM55.8867 13.9444C56.488 13.3986 56.5778 13.3986 57.1791 13.9444C58.1144 14.7935 58.386 14.6693 58.1319 13.5085C57.9491 12.6739 58.0825 12.3483 58.8581 11.7364L59.8082 10.9867H58.515C57.3609 10.9867 57.1991 10.8724 57.0099 9.92338C56.8933 9.33857 56.6786 8.86009 56.5329 8.86009C56.3871 8.86009 56.1725 9.33857 56.0559 9.92338C55.8667 10.8724 55.7049 10.9867 54.5507 10.9867H53.2575L54.2077 11.7364C54.9833 12.3483 55.1166 12.6739 54.9339 13.5085C54.6797 14.6693 54.9514 14.7935 55.8867 13.9444ZM70.0201 13.9444C70.6213 13.3986 70.7111 13.3986 71.3124 13.9444C72.2477 14.7935 72.5193 14.6693 72.2652 13.5085C72.0824 12.6739 72.2158 12.3483 72.9914 11.7364L73.9415 10.9867H72.6484C71.4942 10.9867 71.3324 10.8724 71.1432 9.92338C71.0266 9.33857 70.812 8.86009 70.6662 8.86009C70.5205 8.86009 70.3058 9.33857 70.1892 9.92338C70 10.8724 69.8382 10.9867 68.684 10.9867H67.3909L68.341 11.7364C69.1166 12.3483 69.25 12.6739 69.0672 13.5085C68.8131 14.6693 69.0847 14.7935 70.0201 13.9444ZM7.9924 8.03497L8.91895 8.64395L8.67992 7.55231C8.47948 6.63685 8.59423 6.3397 9.39101 5.71097L10.3411 4.96128H9.08488C7.97633 4.96128 7.80125 4.83626 7.59583 3.89799C7.29806 2.53808 6.83358 2.53808 6.53583 3.89799C6.33039 4.83624 6.15529 4.96128 5.04677 4.96128H3.79053L4.74064 5.71097C5.53745 6.33966 5.65217 6.63682 5.45173 7.55231L5.21271 8.64395L6.13925 8.03497C7.01517 7.45927 7.11652 7.45927 7.9924 8.03497ZM22.1257 8.03497L23.0523 8.64395L22.8133 7.55231C22.6128 6.63685 22.7276 6.3397 23.5243 5.71097L24.4745 4.96128H23.2182C22.1097 4.96128 21.9346 4.83626 21.7292 3.89799C21.4314 2.53808 20.9669 2.53808 20.6692 3.89799C20.4637 4.83624 20.2886 4.96128 19.1801 4.96128H17.9239L18.874 5.71097C19.6708 6.33966 19.7855 6.63682 19.5851 7.55231L19.346 8.64395L20.2726 8.03497C21.1485 7.45927 21.2499 7.45927 22.1257 8.03497ZM36.2591 8.03497L37.1856 8.64395L36.9466 7.55231C36.7461 6.63685 36.8609 6.3397 37.6577 5.71097L38.6078 4.96128H37.3515C36.243 4.96128 36.0679 4.83626 35.8625 3.89799C35.5647 2.53808 35.1002 2.53808 34.8025 3.89799C34.5971 4.83624 34.422 4.96128 33.3134 4.96128H32.0572L33.0073 5.71097C33.8041 6.33966 33.9188 6.63682 33.7184 7.55231L33.4794 8.64395L34.4059 8.03497C35.2818 7.45927 35.3832 7.45927 36.2591 8.03497ZM50.3924 8.03497L51.3189 8.64395L51.0799 7.55231C50.8795 6.63685 50.9942 6.3397 51.791 5.71097L52.7411 4.96128H51.4849C50.3763 4.96128 50.2013 4.83626 49.9958 3.89799C49.6981 2.53808 49.2336 2.53808 48.9358 3.89799C48.7304 4.83624 48.5553 4.96128 47.4468 4.96128H46.1905L47.1406 5.71097C47.9374 6.33966 48.0522 6.63682 47.8517 7.55231L47.6127 8.64395L48.5393 8.03497C49.4152 7.45927 49.5165 7.45927 50.3924 8.03497ZM64.5257 8.03497L65.4523 8.64395L65.2133 7.55231C65.0128 6.63685 65.1276 6.3397 65.9243 5.71097L66.8745 4.96128H65.6182C64.5097 4.96128 64.3346 4.83626 64.1292 3.89799C63.8314 2.53808 63.3669 2.53808 63.0692 3.89799C62.8637 4.83624 62.6886 4.96128 61.5801 4.96128H60.3239L61.274 5.71097C62.0708 6.33966 62.1855 6.63682 61.9851 7.55231L61.746 8.64395L62.6726 8.03497C63.5485 7.45927 63.6499 7.45927 64.5257 8.03497ZM78.6591 8.03497L79.5856 8.64395L79.3466 7.55231C79.1461 6.63685 79.2609 6.3397 80.0577 5.71097L81.0078 4.96128H79.7515C78.643 4.96128 78.4679 4.83626 78.2625 3.89799C77.9647 2.53808 77.5003 2.53808 77.2025 3.89799C76.9971 4.83624 76.822 4.96128 75.7134 4.96128H74.4572L75.4073 5.71097C76.2041 6.33966 76.3188 6.63682 76.1184 7.55231L75.8794 8.64395L76.8059 8.03497C77.6818 7.45927 77.7832 7.45927 78.6591 8.03497Z" fill="#AAAAAA"/>
</svg>
